# xmcd CD database file
#
# Track frame offsets:
#	150
#	28033
#	55396
#	72934
#	87135
#	102011
#	126719
#	142735
#	159212
#	183053
#	197480
#	207345
#	233269
#
# Disc length: 3424 seconds
#
# Revision: 0
# Processed by: cddbd v1.5.2PL0 Copyright (c) Steve Scherf et al.
# Submitted via: CDex 1.51
#
DISCID=a20d5e0d
DTITLE=Maximilian Geller - Alpenglühen
DYEAR=2013
DGENRE=Jazz
TTITLE0=Southeast
TTITLE1=Alpenglühen
TTITLE2=Der Wasserfall
TTITLE3=Auf geht's
TTITLE4=Sur les rives
TTITLE5=Noch ein Weilchen
TTITLE6=E bitz grantig
TTITLE7=Alpenrosen
TTITLE8=How many days
TTITLE9=Bam
TTITLE10=Bergfex
TTITLE11=From above
TTITLE12=Mei Bua
EXTD=YEAR: 2013
EXTT0=
EXTT1=
EXTT2=
EXTT3=
EXTT4=
EXTT5=
EXTT6=
EXTT7=
EXTT8=
EXTT9=
EXTT10=
EXTT11=
EXTT12=
PLAYORDER=
